<svg xmlns="http://www.w3.org/2000/svg" width="88" height="88" fill="none"><g filter="url(#a)"><circle cx="44" cy="44" r="44" fill="#4F1181"/></g><g fill-rule="evenodd" clip-rule="evenodd"><path fill="#fff" d="M34.8182 47.9999V48c-2.2722 0-3.9691-1.7159-3.9691-3.9937 0-2.2904 1.6969-4.0063 3.9691-4.0063 1.9564 0 3.4717 1.3173 3.7751 3.2481h-2.0838c-.2562-.781-.9012-1.288-1.6868-1.288-1.0571 0-1.8324.867-1.8324 2.0461 0 1.1745.7753 2.029 1.8324 2.029.8283 0 1.4794-.5505 1.6886-1.3967h2.1034c-.2838 2.0022-1.8082 3.3614-3.7965 3.3614Zm-9.6143-.1926.4135-1.2367h2.646l.4113 1.2367h2.2647l-2.9967-7.6149h-2.0103L23 47.8073h2.2039Zm2.5576-2.8784h-1.6432l.8179-2.3596.8253 2.3596ZM43.1107 48v-.0001c1.9884 0 3.5127-1.3592 3.7965-3.3614h-2.1034c-.2092.8462-.8603 1.3967-1.6886 1.3967-1.0571 0-1.8324-.8545-1.8324-2.029 0-1.1791.7753-2.0461 1.8324-2.0461.7856 0 1.4306.507 1.6869 1.288h2.0837C46.5824 41.3173 45.0671 40 43.1107 40c-2.2722 0-3.9691 1.7159-3.9691 4.0063 0 2.2778 1.6969 3.9937 3.9691 3.9937Zm8.4341-.0001V48c-2.3998 0-4.1123-1.6727-4.1123-4s1.7125-4 4.1123-4c2.3937 0 4.1 1.6664 4.1 4 0 2.3335-1.7063 3.9999-4.1 3.9999Zm0-1.9519c-1.1362-.0001-1.9709-.8625-1.9709-2.0479 0-1.1854.8347-2.0477 1.9709-2.0477s1.9587.8561 1.9587 2.0478c0 1.1916-.8225 2.0478-1.9587 2.0478Zm11.5209-1.1864c0 1.8735-1.3557 3.1383-3.2587 3.1383-1.9032 0-3.2589-1.2648-3.2589-3.1383v-4.6692H58.65v4.63c0 .7443.4702 1.2252 1.157 1.2252.6867 0 1.1568-.4809 1.1568-1.2252v-4.63h2.1019v4.6692Zm3.2925 2.9457v-4.1325l2.9657 4.1325h1.7008v-7.6149h-1.9929v3.9951l-2.8665-3.9951h-1.8v7.6149h1.9929Zm9.614-5.7259v5.7259h-2.0656v-5.7259h-2.028v-1.889H78v1.889h-2.0278Z"/><path fill="url(#b)" d="M17.4206 47.9532 13.7103 40 10 47.9532h7.4206Z"/><path fill="url(#c)" d="M20.9127 47.9532 17.2024 40l-3.7103 7.9532h7.4206Z"/></g><defs><linearGradient id="b" x1="6.28968" x2="14.2238" y1="43.9766" y2="51.3795" gradientUnits="userSpaceOnUse"><stop stop-color="#5141E2"/><stop offset="1" stop-color="#DE39FF"/></linearGradient><linearGradient id="c" x1="9.78175" x2="17.7159" y1="43.9766" y2="51.3795" gradientUnits="userSpaceOnUse"><stop stop-color="#5141E2"/><stop offset="1" stop-color="#DE39FF" stop-opacity=".01"/></linearGradient><filter id="a" width="88" height="88" x="0" y="0" color-interpolation-filters="sRGB" filterUnits="userSpaceOnUse"><feFlood flood-opacity="0" result="BackgroundImageFix"/><feBlend in="SourceGraphic" in2="BackgroundImageFix" result="shape"/><feColorMatrix in="SourceAlpha" result="hardAlpha" values="0 0 0 0 0 0 0 0 0 0 0 0 0 0 0 0 0 0 127 0"/><feOffset/><feGaussianBlur stdDeviation="17.5"/><feComposite in2="hardAlpha" k2="-1" k3="1" operator="arithmetic"/><feColorMatrix values="0 0 0 0 0 0 0 0 0 0 0 0 0 0 0 0 0 0 0.0452633 0"/><feBlend in2="shape" result="effect1_innerShadow_0_996"/></filter></defs></svg>