<svg xmlns="http://www.w3.org/2000/svg" width="88" height="88" fill="none"><g filter="url(#a)"><circle cx="44" cy="44" r="44" fill="#1A7373"/></g><path fill="#fff" fill-rule="evenodd" d="M44.5 56.9933C46.7063 58.2695 49.2678 59 52 59c8.2843 0 15-6.7157 15-15s-6.7157-15-15-15c-2.7322 0-5.2937.7305-7.5 2.0067C42.2937 29.7305 39.7322 29 37 29v2.7273c1.7896 0 3.4898.383 5.023 1.0716C38.9409 35.5462 37 39.5464 37 44c0 4.4536 1.9409 8.4538 5.023 11.2011-1.5332.6886-3.2334 1.0716-5.023 1.0716-6.778 0-12.2727-5.4947-12.2727-12.2727H22c0 8.2843 6.7157 15 15 15 2.7322 0 5.2937-.7305 7.5-2.0067Zm2.477-1.7922c1.5332.6886 3.2334 1.0716 5.023 1.0716 6.778 0 12.2727-5.4947 12.2727-12.2727 0-6.778-5.4947-12.2727-12.2727-12.2727-1.7896 0-3.4898.383-5.023 1.0716C50.0591 35.5462 52 39.5464 52 44c0 4.4536-1.9409 8.4538-5.023 11.2011ZM44.5 53.7152c2.9032-2.2446 4.7727-5.7616 4.7727-9.7152s-1.8695-7.4706-4.7727-9.7152c-2.9032 2.2446-4.7727 5.7616-4.7727 9.7152s1.8695 7.4706 4.7727 9.7152Z" clip-rule="evenodd"/><defs><filter id="a" width="88" height="88" x="0" y="0" color-interpolation-filters="sRGB" filterUnits="userSpaceOnUse"><feFlood flood-opacity="0" result="BackgroundImageFix"/><feBlend in="SourceGraphic" in2="BackgroundImageFix" result="shape"/><feColorMatrix in="SourceAlpha" result="hardAlpha" values="0 0 0 0 0 0 0 0 0 0 0 0 0 0 0 0 0 0 127 0"/><feOffset/><feGaussianBlur stdDeviation="17.5"/><feComposite in2="hardAlpha" k2="-1" k3="1" operator="arithmetic"/><feColorMatrix values="0 0 0 0 0 0 0 0 0 0 0 0 0 0 0 0 0 0 0.0452633 0"/><feBlend in2="shape" result="effect1_innerShadow_0_1192"/></filter></defs></svg>