<svg xmlns="http://www.w3.org/2000/svg" width="88" height="88" fill="none"><g filter="url(#a)"><circle cx="44" cy="44" r="44" fill="url(#b)"/></g><path fill="#fff" fill-rule="evenodd" d="M71.5316 43.4732c.0374.3239.0644.5215.081.593l1.0098 4.5616H74L71.7934 39l-2.6305 5.8233c-.0249.0589-.0623.1431-.1122.2524-.187.408-.3242.7445-.4114 1.0095-.1205-.3155-.2234-.5805-.3086-.795-.0852-.2145-.1485-.368-.1901-.4605L65.4478 39l-2.1568 9.6278h1.3651l.9787-4.5489c.054-.2314.0945-.4532.1215-.6657.027-.2124.0426-.4153.0468-.6088.054.1893.1174.3807.1901.5741.0727.1935.159.3933.2587.5994L68.6393 49l2.3874-4.9211c.1039-.2188.1901-.4333.2587-.6436.0685-.2103.1215-.4206.1589-.6309.0249.1767.054.3996.0873.6688Zm-12.0661 5.1546-1.0347-2.3786h-3.6154l-1.0597 2.3786h-1.5583l4.4194-9.6026 4.4133 9.6026h-1.5646Zm-10.1462-6.9906c-.4197-.3617-.8633-.633-1.3308-.8139-.4675-.1808-.9589-.2712-1.4742-.2712-.9974 0-1.8087.3238-2.4342.9716-.6254.6477-.9381 1.4868-.9381 2.5173 0 .9969.3044 1.8191.9132 2.4669.6088.6477 1.3765.9716 2.3033.9716.5402 0 1.0544-.0967 1.5427-.2902.4883-.1935.9568-.4858 1.4056-.877v1.6972c-.3989.2902-.8331.5068-1.3027.6498-.4696.143-.9787.2145-1.5272.2145-.6982 0-1.3433-.1156-1.9355-.347-.5922-.2313-1.1126-.572-1.5615-1.0221-.4446-.4416-.7864-.9621-1.0253-1.5615-.239-.5994-.3585-1.2376-.3585-1.9148s.1195-1.3134.3585-1.9085c.2389-.5952.5849-1.1178 1.0378-1.5678.453-.4543.9724-.7982 1.5584-1.0316.5859-.2334 1.2196-.3502 1.9012-.3502.536 0 1.0472.0789 1.5334.2366.4862.1578.9578.3965 1.4149.7161l-.081 1.5142ZM14 48.6278v-9.2366h5.0927v1.2744h-3.6092v2.3155h3.6092v1.3186h-3.6092v2.9842h3.6092v1.3439H14Zm11.0376 0v-4.2272l-3.0731-5.0094h1.5583l1.9137 3.1356c.0457.0799.1029.1851.1714.3155.0686.1304.1382.2713.2088.4227.0582-.1472.1195-.286.1839-.4164.0644-.1304.132-.2503.2026-.3596l1.9635-3.0978h1.4836l-3.1417 5.0094v4.2272h-1.471Zm7.8834-9.2366v9.2366h5.0927v-1.3439h-3.6091v-2.9842h3.6091v-1.3186h-3.6091v-2.3155h3.6091v-1.2744H32.921ZM57.9072 45h-2.5433l.935-2.1073c.0582-.1472.1154-.3081.1715-.4826.0561-.1746.109-.3628.1589-.5647.0582.2145.1164.4091.1745.5836.0582.1746.1143.3291.1683.4637L57.9072 45Z" clip-rule="evenodd"/><defs><linearGradient id="b" x1=".86054" x2=".86054" y1="0" y2="86.2789" gradientUnits="userSpaceOnUse"><stop stop-color="#43E2DF"/><stop offset="1" stop-color="#156A8D"/></linearGradient><filter id="a" width="88" height="88" x="0" y="0" color-interpolation-filters="sRGB" filterUnits="userSpaceOnUse"><feFlood flood-opacity="0" result="BackgroundImageFix"/><feBlend in="SourceGraphic" in2="BackgroundImageFix" result="shape"/><feColorMatrix in="SourceAlpha" result="hardAlpha" values="0 0 0 0 0 0 0 0 0 0 0 0 0 0 0 0 0 0 127 0"/><feOffset/><feGaussianBlur stdDeviation="17.5"/><feComposite in2="hardAlpha" k2="-1" k3="1" operator="arithmetic"/><feColorMatrix values="0 0 0 0 0 0 0 0 0 0 0 0 0 0 0 0 0 0 0.0452633 0"/><feBlend in2="shape" result="effect1_innerShadow_0_1310"/></filter></defs></svg>