<svg xmlns="http://www.w3.org/2000/svg" width="1366" height="156" fill="none"><path fill="#5CA5A5" d="M0 0h1366v156H0z"/><mask id="a" width="1366" height="156" x="0" y="0" maskUnits="userSpaceOnUse" style="mask-type:luminance"><path fill="#fff" d="M0 0h1366v156H0z"/></mask><g fill="#63BABA" fill-rule="evenodd" clip-rule="evenodd" mask="url(#a)"><path d="M842.498 563.441c51.433 51.426 134.816 51.426 186.252 0l396.66-396.603c51.44-51.436 51.44-134.8392 0-186.2758-51.44-51.4264-134.82-51.4264-186.25 0L1060.98 158.71c43.83-51.75 41.33-129.3401-7.48-178.1478-51.43-51.4264-134.817-51.4264-186.251 0L470.591 377.165c-51.444 51.437-51.444 134.839 0 186.276 51.433 51.426 134.816 51.426 186.25 0l178.172-178.148c-43.825 51.75-41.33 129.34 7.485 178.148ZM-102.41 117.441c51.4341 51.426 134.8169 51.426 186.2505 0L480.499-279.162c51.444-51.436 51.444-134.839 0-186.276-51.434-51.426-134.816-51.426-186.25 0L-102.41-68.835c-51.443 51.4366-51.443 134.8395 0 186.276Zm444.693-71.8241c51.433 51.4264 134.816 51.4263 186.249 0L925.191-350.986c51.444-51.437 51.444-134.839 0-186.276-51.434-51.426-134.816-51.426-186.25 0L342.282-140.659c-51.443 51.4364-51.443 134.83928.001 186.2759Z"/></g></svg>