<svg xmlns="http://www.w3.org/2000/svg" width="88" height="88" fill="none"><g filter="url(#a)"><circle cx="44" cy="44" r="44" fill="#403646"/></g><path fill="#F3D3CA" fill-rule="evenodd" d="M33.0338 46.7542c-.3294-.1439-.6541-.3056-.9741-.485l-.9543 1.4411c.335.1906.6992.3654 1.0926.5243.3934.1589.8075.2953 1.2424.4093.4348.114.8893.2019 1.3637.2636.4743.0617.9599.0925 1.4569.0925.7529 0 1.4361-.0701 2.0498-.2103.6136-.1402 1.1378-.3458 1.5726-.6168.4348-.271.7699-.6037 1.0052-.9981.2353-.3944.3529-.844.3529-1.3486 0-.3776-.0696-.7187-.2089-1.0234-.1393-.3047-.3445-.5645-.6155-.7794-.2711-.215-.6071-.3804-1.008-.4963-.4009-.1159-.8611-.1738-1.3807-.1738-.2748 0-.5581.014-.8498.042-.2918.0281-.5779.0589-.8583.0926l-.4109.0483-.391.0442c-.2541.028-.479.042-.6748.042-.4856 0-.847-.0831-1.0842-.2495-.2372-.1664-.3557-.3804-.3557-.6421 0-.1345.0367-.2701.1101-.4065.0734-.1365.2042-.2598.3924-.3701.1883-.1103.4414-.2009.7595-.272.3181-.071.7238-.1065 1.2169-.1065.3464 0 .6861.0196 1.0193.0589.3332.0392.656.0925.9684.1598.3125.0673.6118.1467.8979.2383.2861.0916.5534.1916.8018.3l.7849-1.4355c-.3011-.1346-.6268-.257-.9769-.3673-.3501-.1103-.7143-.2047-1.0926-.2832-.3784-.0785-.7671-.1392-1.1661-.1822-.3991-.043-.7962-.0645-1.1915-.0645-.5459 0-1.0324.0383-1.4597.115-.4273.0766-.8038.1822-1.1294.3168-.3256.1346-.6033.2944-.8329.4794-.2296.1851-.4169.3851-.5619.6-.1449.215-.2503.4402-.3162.6757-.0659.2355-.0988.4729-.0988.7122 0 .4037.0828.757.2485 1.0598.1656.3028.3886.5551.6691.757.2805.2019.6023.3533.9656.4542.3633.1009.7426.1514 1.1379.1514.2371 0 .4903-.0159.7595-.0477.2691-.0317.5421-.0663.8188-.1037l.4129-.054.4087-.0497c.271-.0318.5289-.0477.7736-.0477.5572 0 .9694.0925 1.2367.2776.2673.185.4009.4364.4009.7542 0 .1981-.0536.3813-.1609.5495-.1073.1682-.2786.3131-.5139.4346s-.5393.2168-.912.286c-.3727.0691-.8244.1037-1.3552.1037-.4405 0-.8555-.0262-1.2452-.0785-.3896-.0523-.7613-.128-1.1152-.2271s-.6955-.2206-1.0249-.3645ZM16 40.1121h1.8014v8.7645H16v-8.7645Zm4.0714 0h1.7901l5.5 2.8599v-2.8599h1.7901v8.7645h-1.7901v-4.0205l-5.5-2.843v6.8635h-1.7901v-8.7645Zm22.8077 0h1.7901v4.8281c0 .3963.0545.7486.1637 1.057.1092.3084.272.5692.4885.7822.2164.2131.4847.3748.8046.4851.32.1103.6927.1654 1.1181.1654.4217 0 .7934-.0551 1.1153-.1654.3219-.1103.591-.272.8075-.4851.2165-.213.3793-.4738.4884-.7822.1092-.3084.1638-.6607.1638-1.057v-4.8281h1.7901v5.0412c0 .5757-.0979 1.099-.2937 1.5701-.1957.471-.48.8747-.8527 1.2112-.3727.3364-.8291.5962-1.3693.7794-.5402.1832-1.1567.2748-1.8494.2748-.6927 0-1.3091-.0916-1.8493-.2748-.5402-.1832-.9967-.443-1.3694-.7794-.3727-.3365-.6569-.7402-.8527-1.2112-.1957-.4711-.2936-.9944-.2936-1.5701v-5.0412Zm15.399 0h-4.4893v8.7645h1.7901v-2.4953l2.7613.0056 1.6602 2.4897h2.191l-1.9199-2.8037c.335-.1271.6268-.2869.8752-.4794.2485-.1926.4546-.4122.6184-.6589.1637-.2468.2851-.5168.3642-.8103.079-.2935.1186-.6028.1186-.928 0-.4823-.08-.9141-.24-1.2954-.16-.3813-.4038-.7046-.7313-.9701-.3275-.2654-.7397-.4682-1.2367-.6084-.4969-.1402-1.0842-.2103-1.7618-.2103Zm.0452 4.7328c.3388 0 .6353-.0393.8894-.1178s.4668-.1888.6381-.3308c.1712-.1421.2992-.315.3839-.5187.0848-.2038.1271-.4309.1271-.6813 0-.4898-.1694-.8683-.5082-1.1356-.3388-.2672-.8489-.4009-1.5303-.4009h-2.7444v3.1851h2.7444Zm13.5581-4.7328h-7.516v8.7645H72v-1.5532h-5.8445v-2.4393h5.0709v-1.4635h-5.0709V41.671h5.7259v-1.5589Z" clip-rule="evenodd"/><defs><filter id="a" width="88" height="88" x="0" y="0" color-interpolation-filters="sRGB" filterUnits="userSpaceOnUse"><feFlood flood-opacity="0" result="BackgroundImageFix"/><feBlend in="SourceGraphic" in2="BackgroundImageFix" result="shape"/><feColorMatrix in="SourceAlpha" result="hardAlpha" values="0 0 0 0 0 0 0 0 0 0 0 0 0 0 0 0 0 0 127 0"/><feOffset/><feGaussianBlur stdDeviation="17.5"/><feComposite in2="hardAlpha" k2="-1" k3="1" operator="arithmetic"/><feColorMatrix values="0 0 0 0 0 0 0 0 0 0 0 0 0 0 0 0 0 0 0.0452633 0"/><feBlend in2="shape" result="effect1_innerShadow_0_1337"/></filter></defs></svg>