<svg xmlns="http://www.w3.org/2000/svg" width="88" height="88" fill="none"><g filter="url(#a)"><circle cx="44" cy="44" r="44" fill="#8D1558"/></g><path fill="#fff" fill-rule="evenodd" d="M14.4111 43.8537c.7799 0 1.4112-.6348 1.4112-1.4189V31.419c0-.7842-.6313-1.419-1.4112-1.419C13.6313 30 13 30.6348 13 31.419v11.0158c0 .7841.6313 1.4189 1.4111 1.4189Zm8.1207.1121c3.1008 0 5.4032-2.3339 5.4032-5.2092v-.0373c0-2.8753-2.2838-5.1718-5.366-5.1718-3.1008 0-5.4032 2.3338-5.4032 5.2091v.0374c0 2.8753 2.2838 5.1718 5.366 5.1718Zm-2.5809-5.2092c0 1.475 1.0584 2.7633 2.6181 2.7633 1.6154 0 2.5809-1.251 2.5809-2.7259v-.0374c0-1.475-1.0584-2.7633-2.6181-2.7633-1.6154 0-2.5809 1.251-2.5809 2.726v.0373Zm14.0809 5.2092c3.1008 0 5.4032-2.3339 5.4032-5.2092v-.0373c0-2.8753-2.2838-5.1718-5.366-5.1718-3.1008 0-5.4032 2.3338-5.4032 5.2091v.0374c0 2.8753 2.2838 5.1718 5.366 5.1718Zm-2.5809-5.2092c0 1.475 1.0584 2.7633 2.6181 2.7633 1.6153 0 2.5809-1.251 2.5809-2.7259v-.0374c0-1.475-1.0584-2.7633-2.6181-2.7633-1.6154 0-2.5809 1.251-2.5809 2.726v.0373Zm10.6088 8.0845c.7798 0 1.4111-.6348 1.4111-1.419v-2.9873c.6685.8028 1.5968 1.4936 3.1008 1.4936 2.3581 0 4.5305-1.8297 4.5305-5.1718v-.0373c0-3.3421-2.2095-5.1718-4.5305-5.1718-1.4668 0-2.4138.6908-3.1008 1.6243v-.1307c0-.7842-.6313-1.419-1.4111-1.419-.7799 0-1.4112.6348-1.4112 1.419v10.381c0 .7842.6313 1.419 1.4112 1.419Zm1.374-8.0845c0 1.6617 1.0955 2.7633 2.4138 2.7633 1.3183 0 2.4323-1.0829 2.4323-2.7633v-.0373c0-1.6617-1.114-2.7633-2.4323-2.7633s-2.4138 1.1016-2.4138 2.7633v.0373ZM17.2891 57.9627c2.1539 0 3.8064-1.0083 3.8064-3.2301v-.0373c0-1.8298-1.6154-2.5019-3.008-2.9687-.1058-.0367-.2104-.0723-.3129-.1072l-.0003-.0001c-.9408-.3204-1.7106-.5826-1.7106-1.0876v-.0374c0-.3921.3527-.6908 1.0397-.6908.5942 0 1.3555.2427 2.1539.6348.1857.0934.3156.1307.5199.1307.6313 0 1.1326-.4854 1.1326-1.1202 0-.4855-.2599-.8589-.6684-1.0643-.9655-.4854-2.0425-.7655-3.0822-.7655-2.0054 0-3.6393 1.1389-3.6393 3.1741v.0373c0 1.9418 1.5782 2.5952 2.9708 3.006.1274.0391.253.0764.3755.1128l.0008.0002.0004.0001c.9309.2765 1.6843.5002 1.6843 1.0445v.0373c0 .4481-.3713.7469-1.1883.7469-.7984 0-1.7454-.2988-2.6923-.8962-.1486-.0934-.3528-.1494-.557-.1494-.6313 0-1.1141.4854-1.1141 1.1203 0 .4481.2414.7841.5385.9708 1.2069.7842 2.5252 1.139 3.7506 1.139Zm9.7918-.2988c-.5199.2054-1.0027.2801-1.6154.2801-1.7268 0-2.8965-.6908-2.8965-3.006v-4.7424h-.0929c-.6684 0-1.2069-.5415-1.2069-1.2136 0-.6722.5385-1.2136 1.2069-1.2136h.0929v-1.251c0-.7841.6313-1.4189 1.4111-1.4189s1.4111.6348 1.4111 1.4189v1.251h1.2441c.6684 0 1.2069.5414 1.2069 1.2136 0 .6721-.5385 1.2136-1.2069 1.2136h-1.2441v4.2756c0 .6535.2786.9709.9099.9709.0522 0 .1338-.0059.2052-.0111H26.5066c.0553-.004.1044-.0076.1287-.0076.6313 0 1.1697.5228 1.1697 1.1763 0 .5041-.3342.9149-.7241 1.0642Zm5.2056.2988c1.4297 0 2.2652-.7655 2.9151-1.6057v.112c0 .7842.6313 1.419 1.4111 1.419.7799 0 1.4112-.6348 1.4112-1.419v-7.3937c0-.7841-.6313-1.4189-1.4112-1.4189-.7798 0-1.4111.6348-1.4111 1.4189v4.2757c0 1.3443-.687 2.0351-1.7639 2.0351-1.077 0-1.7083-.6908-1.7083-2.0351v-4.2757c0-.7841-.6313-1.4189-1.4111-1.4189s-1.4111.6348-1.4111 1.4189v5.1719c0 2.2965 1.244 3.7155 3.3793 3.7155Zm14.6193-1.6244c-.687.9335-1.6339 1.6244-3.1008 1.6244-2.3209 0-4.5305-1.8298-4.5305-5.1719v-.0373c0-3.3421 2.1724-5.1718 4.5305-5.1718 1.504 0 2.4324.6908 3.1008 1.4936v-3.6221c0-.7842.6313-1.419 1.4112-1.419.7798 0 1.4111.6348 1.4111 1.419V56.469c0 .7842-.6313 1.419-1.4111 1.419-.7799 0-1.4112-.6348-1.4112-1.419v-.1307Zm-2.3766-.7842c-1.3183 0-2.4324-1.1016-2.4324-2.7633v-.0373c0-1.6804 1.1141-2.7633 2.4324-2.7633 1.3183 0 2.4138 1.1016 2.4138 2.7633v.0373c0 1.6617-1.0955 2.7633-2.4138 2.7633Zm10.0146-10.1382c0 .8215-.687 1.3443-1.5783 1.3443-.8912 0-1.5782-.5228-1.5782-1.3443v-.0374c0-.8215.687-1.3256 1.5782-1.3256.8913 0 1.5783.5041 1.5783 1.3256v.0374ZM52.9655 57.888c.7799 0 1.4112-.6348 1.4112-1.419v-7.3937c0-.7841-.6313-1.4189-1.4112-1.4189-.7798 0-1.4111.6348-1.4111 1.4189v7.3937c0 .7842.6313 1.419 1.4111 1.419Zm13.5239-5.0972c0 2.8753-2.3024 5.2092-5.4032 5.2092-3.0822 0-5.366-2.2965-5.366-5.1718v-.0374c0-2.8753 2.3023-5.2091 5.4031-5.2091 3.0823 0 5.3661 2.2965 5.3661 5.1718v.0373Zm-5.3661 2.7633c-1.5596 0-2.618-1.2883-2.618-2.7633v-.0373c0-1.475.9655-2.7259 2.5809-2.7259 1.5597 0 2.618 1.2882 2.618 2.7632v.0374c0 1.475-.9655 2.7259-2.5809 2.7259ZM75 54.7326c0 2.2218-1.6525 3.2301-3.8064 3.2301-1.2254 0-2.5437-.3548-3.7506-1.139-.2971-.1867-.5385-.5227-.5385-.9708 0-.6349.4828-1.1203 1.1141-1.1203.2042 0 .4085.056.557.1494.9469.5974 1.8939.8962 2.6923.8962.817 0 1.1883-.2988 1.1883-.7469v-.0373c0-.5443-.7534-.768-1.6843-1.0445-.1229-.0365-.2489-.0739-.3767-.1131-1.3925-.4108-2.9708-1.0642-2.9708-3.006v-.0373c0-2.0352 1.634-3.1741 3.6393-3.1741 1.0398 0 2.1167.2801 3.0822.7655.4085.2054.6684.5788.6684 1.0643 0 .6348-.5013 1.1202-1.1326 1.1202-.2042 0-.3342-.0373-.5199-.1307-.7984-.3921-1.5597-.6348-2.1538-.6348-.687 0-1.0398.2987-1.0398.6908v.0374c0 .505.7698.7672 1.7106 1.0876.1027.0349.2073.0706.3132.1073 1.3926.4668 3.008 1.1389 3.008 2.9687v.0373Z" clip-rule="evenodd"/><defs><filter id="a" width="88" height="88" x="0" y="0" color-interpolation-filters="sRGB" filterUnits="userSpaceOnUse"><feFlood flood-opacity="0" result="BackgroundImageFix"/><feBlend in="SourceGraphic" in2="BackgroundImageFix" result="shape"/><feColorMatrix in="SourceAlpha" result="hardAlpha" values="0 0 0 0 0 0 0 0 0 0 0 0 0 0 0 0 0 0 127 0"/><feOffset/><feGaussianBlur stdDeviation="17.5"/><feComposite in2="hardAlpha" k2="-1" k3="1" operator="arithmetic"/><feColorMatrix values="0 0 0 0 0 0 0 0 0 0 0 0 0 0 0 0 0 0 0.0452633 0"/><feBlend in2="shape" result="effect1_innerShadow_0_1119"/></filter></defs></svg>