<svg xmlns="http://www.w3.org/2000/svg" width="88" height="88" fill="none"><g filter="url(#a)"><circle cx="44" cy="44" r="44" fill="#F3603C"/></g><path fill="#fff" fill-rule="evenodd" d="M62.8556 48.892c.5041 0 .9549-.0586 1.3526-.1758.3977-.1172.7318-.2803 1.0023-.4894.2706-.2091.4948-.4653.6729-.7686.178-.3033.3063-.6342.3849-.9927.0787-.3584.118-.7513.118-1.1787v-6.1765h-1.5885v.7238h-.0277c-.2867-.2711-.6162-.4779-.9885-.6204-.3722-.1425-.7595-.2137-1.1618-.2137-.6335 0-1.2023.1494-1.7064.4481-.504.2987-.8959.7134-1.1757 1.2442-.2798.5308-.4196 1.1271-.4196 1.7889 0 .6709.1468 1.266.4404 1.7853.2937.5193.6971.918 1.2104 1.196.5133.2781 1.0913.4171 1.7341.4171.8601 0 1.5607-.2803 2.1018-.841h.0277v.7307c0 .4871-.1803.8915-.541 1.2132-.3607.3217-.8694.4826-1.5261.4826-.4485 0-.8427-.0552-1.1826-.1655-.3399-.1103-.7318-.2826-1.1757-.517l-.3746 1.3925c.3884.2298.8254.4067 1.311.5308.4855.1241.9896.1861 1.5121.1861Zm-33.0497-6.3281v3.4398h-1.5884v-3.5915c0-1.3143-.4601-1.9715-1.3803-1.9715-.4856 0-.8844.1896-1.1966.5687-.3121.3792-.4682.8973-.4682 1.5545v3.4329H23.584v-6.8865h1.5884v.9513h.0208c.2821-.3401.6116-.6009.9885-.7824.3768-.1815.7688-.2723 1.1757-.2723.9665 0 1.6555.3814 2.067 1.1443h.0278c.2913-.3722.6497-.656 1.0751-.8513.4255-.1954.8948-.293 1.4081-.293.7815 0 1.3827.2493 1.8035.7479.4208.4986.6312 1.2512.6312 2.2576v3.9913h-1.5884v-3.5915c0-1.3143-.4532-1.9715-1.3596-1.9715-.4624 0-.8474.1896-1.1549.5687-.3075.3792-.4613.8973-.4613 1.5545Zm11.0682 2.5092c-.5271.6893-1.2624 1.034-2.2057 1.034-.4763 0-.9214-.0839-1.3353-.2516-.4139-.1678-.7688-.4033-1.0647-.7066-.296-.3033-.5295-.6756-.7006-1.1167-.1711-.4412-.2567-.9237-.2567-1.4476 0-.5102.0856-.9881.2567-1.4339.1711-.4457.4046-.8249.7006-1.1374.2959-.3125.6497-.5583 1.0612-.7376.4116-.1792.8532-.2688 1.3249-.2688.9017 0 1.6162.3102 2.1433.9306h.0278v-.8272h1.5884v6.8865h-1.519v-.9237h-.0209Zm-1.956-.3998c-.5873 0-1.0659-.1942-1.4359-.5825-.3699-.3884-.5549-.8881-.5549-1.4993 0-.648.1908-1.1685.5723-1.5614.3815-.3929.8566-.5894 1.4254-.5894.5642 0 1.0324.2057 1.4046.617.3723.4113.5584.9225.5584 1.5338 0 .6112-.1907 1.1109-.5722 1.4993-.3815.3883-.8474.5825-1.3977.5825Zm11.3872-2.7298v4.0602h-1.5884v-3.6535c0-.3585-.0324-.6618-.0971-.9099-.0647-.2482-.1642-.4447-.2983-.5894-.1341-.1448-.2901-.2493-.4682-.3137-.178-.0643-.3919-.0965-.6416-.0965-.5457 0-.9815.1838-1.3075.5515-.326.3676-.489.8823-.489 1.5441v3.4605h-1.5885v-6.8865h1.5885v.9444h.0208c.2913-.3401.6381-.5997 1.0404-.779.4024-.1792.8301-.2688 1.2833-.2688.7954 0 1.4185.2401 1.8693.7204.4509.4802.6763 1.2189.6763 2.2162Zm4.2914 4.1636c.9433 0 1.6786-.3447 2.2058-1.034h.0208v.9237h1.519v-6.8865h-1.5884v.8272h-.0277c-.5272-.6204-1.2417-.9306-2.1434-.9306-.4717 0-.9133.0896-1.3249.2688-.4115.1793-.7653.4251-1.0612.7376-.296.3125-.5295.6917-.7006 1.1374-.1711.4458-.2566.9237-.2566 1.4339 0 .5239.0855 1.0064.2566 1.4476.1711.4411.4046.8134.7006 1.1167.2959.3033.6508.5388 1.0647.7066.4139.1677.859.2516 1.3353.2516Zm-1.1862-2.0163c.37.3883.8486.5825 1.4359.5825.5503 0 1.0162-.1942 1.3977-.5825.3815-.3884.5722-.8881.5722-1.4993 0-.6113-.1861-1.1225-.5584-1.5338-.3722-.4113-.8404-.617-1.4046-.617-.5688 0-1.0439.1965-1.4254.5894-.3815.3929-.5723.9134-.5723 1.5614 0 .6112.185 1.1109.5549 1.4993Zm8.0821-.2068c.3723.3607.8451.5411 1.4185.5411.5781 0 1.0486-.1896 1.4116-.5687s.5445-.8605.5445-1.4442c0-.579-.1861-1.0501-.5584-1.4131-.3723-.3631-.8381-.5446-1.3977-.5446-.5873 0-1.0636.1838-1.4289.5515-.3653.3676-.548.8433-.548 1.4269 0 .6066.1862 1.0903.5584 1.4511Zm9.4347 2.2231c.6474 0 1.2173-.1172 1.7098-.3516.4925-.2344.896-.5515 1.2104-.9513l-1.1098-.9444c-.4347.5423-1.0104.8135-1.7272.8135-.5086 0-.9399-.1402-1.2936-.4205-.3538-.2804-.5815-.6641-.6832-1.1512h5.0497c.0277-.1655.0416-.3746.0416-.6273 0-.6664-.1364-1.2615-.4093-1.7854-.2728-.5239-.6659-.9352-1.1792-1.2339-.5133-.2988-1.1052-.4481-1.7757-.4481-.4763 0-.9225.0862-1.3387.2585s-.7746.4124-1.0751.7204c-.3006.3079-.5365.6824-.7076 1.1236-.1711.4412-.2566.9214-.2566 1.4407 0 .7031.1549 1.327.4647 1.8715.3099.5446.733.9617 1.2694 1.2512.5364.2895 1.1399.4343 1.8104.4343Zm-1.8659-4.2808h3.4682c-.1017-.4274-.2971-.7652-.5861-1.0133-.289-.2482-.6555-.3723-1.0994-.3723-.4393 0-.8185.1207-1.1376.3619-.3191.2413-.5341.5825-.6451 1.0237Z" clip-rule="evenodd"/><g fill="#fff"><path fill-rule="evenodd" d="M15.34 40.1905c0 .6575-.5238 1.1905-1.17 1.1905-.6462 0-1.17-.533-1.17-1.1905C13 39.533 13.5238 39 14.17 39c.6462 0 1.17.533 1.17 1.1905Zm0 4.2857c0 .6575-.5238 1.1905-1.17 1.1905-.6462 0-1.17-.533-1.17-1.1905 0-.6575.5238-1.1905 1.17-1.1905.6462 0 1.17.533 1.17 1.1905Zm3.042-3.0952c.6462 0 1.17-.533 1.17-1.1905 0-.6575-.5238-1.1905-1.17-1.1905-.6462 0-1.17.533-1.17 1.1905 0 .6575.5238 1.1905 1.17 1.1905Z" clip-rule="evenodd"/><ellipse cx="18.382" cy="44.5238" opacity=".5" rx="1.17" ry="1.19048"/></g><defs><filter id="a" width="88" height="88" x="0" y="0" color-interpolation-filters="sRGB" filterUnits="userSpaceOnUse"><feFlood flood-opacity="0" result="BackgroundImageFix"/><feBlend in="SourceGraphic" in2="BackgroundImageFix" result="shape"/><feColorMatrix in="SourceAlpha" result="hardAlpha" values="0 0 0 0 0 0 0 0 0 0 0 0 0 0 0 0 0 0 127 0"/><feOffset/><feGaussianBlur stdDeviation="17.5"/><feComposite in2="hardAlpha" k2="-1" k3="1" operator="arithmetic"/><feColorMatrix values="0 0 0 0 0 0 0 0 0 0 0 0 0 0 0 0 0 0 0.0452633 0"/><feBlend in2="shape" result="effect1_innerShadow_0_933"/></filter></defs></svg>