<svg xmlns="http://www.w3.org/2000/svg" width="88" height="88" fill="none"><g filter="url(#a)"><circle cx="44" cy="44" r="44" fill="#68A4A4"/></g><circle cx="24" cy="24" r="24" fill="url(#b)" opacity=".25" transform="matrix(-1 0 0 1 69 20)"/><path fill="#fff" fill-rule="evenodd" d="M50.1192 47c1.7747 0 3.1883-1.35 3.1883-3 0-1.66-1.4136-3-3.1883-3-1.7748 0-3.1884 1.34-3.1884 3 0 1.65 1.4136 3 3.1884 3Zm-40.73655-.11v-3.35l1.68185 2.62h.2064l1.6819-2.62v3.35h1.3826V41.1h-1.3826l-1.7851 2.72-1.78505-2.72H8v5.79h1.38265Zm15.68375 0v-1.95l2.1462-3.84h-1.4755l-1.362 2.51-1.3517-2.51h-1.4755l2.1462 3.84v1.95h1.3723Zm10.7413-2.01v2.01h-1.3826V41.1h1.3826v2.56h2.1978V41.1h1.3827v5.79h-1.3827v-2.01h-2.1978ZM48.3651 44c0 .96.7738 1.77 1.7541 1.77.9802 0 1.7541-.81 1.7541-1.77 0-.98-.7739-1.77-1.7541-1.77-.9803 0-1.7541.79-1.7541 1.77Zm13.8677 2.89v-3.35l1.6819 2.62h.2064l1.6818-2.62v3.35h1.3827V41.1h-1.3827l-1.785 2.72-1.7851-2.72h-1.3826v5.79h1.3826ZM79 45.66v1.23h-4.1686V41.1H79v1.23h-2.7859v1.1h2.5692v1.23h-2.5692v1H79Z" clip-rule="evenodd"/><defs><linearGradient id="b" x1="24" x2="-24" y1="-24" y2="24" gradientUnits="userSpaceOnUse"><stop stop-color="#fff"/><stop offset="1" stop-color="#fff" stop-opacity=".01"/></linearGradient><filter id="a" width="88" height="88" x="0" y="0" color-interpolation-filters="sRGB" filterUnits="userSpaceOnUse"><feFlood flood-opacity="0" result="BackgroundImageFix"/><feBlend in="SourceGraphic" in2="BackgroundImageFix" result="shape"/><feColorMatrix in="SourceAlpha" result="hardAlpha" values="0 0 0 0 0 0 0 0 0 0 0 0 0 0 0 0 0 0 127 0"/><feOffset/><feGaussianBlur stdDeviation="17.5"/><feComposite in2="hardAlpha" k2="-1" k3="1" operator="arithmetic"/><feColorMatrix values="0 0 0 0 0 0 0 0 0 0 0 0 0 0 0 0 0 0 0.0452633 0"/><feBlend in2="shape" result="effect1_innerShadow_0_1053"/></filter></defs></svg>