<svg xmlns="http://www.w3.org/2000/svg" width="88" height="88" fill="none"><g filter="url(#a)"><circle cx="44" cy="44" r="44" fill="#000"/></g><g fill-rule="evenodd" clip-rule="evenodd"><path fill="#fff" d="M39.0815 46.7608c-.3845.1595-.7973.2392-1.2383.2392-.4463 0-.8605-.0797-1.2423-.2392-.3818-.1594-.7139-.377-.9963-.6527-.2823-.2757-.5041-.5946-.6655-.9567-.1613-.3622-.242-.746-.242-1.1514s.0807-.7892.242-1.1514c.1614-.3621.3832-.681.6655-.9567.2824-.2757.6145-.4933.9963-.6527.3818-.1595.796-.2392 1.2423-.2392.441 0 .8538.0797 1.2383.2392.3845.1594.718.377 1.0003.6527.2824.2757.5042.5946.6655.9567.1614.3622.242.746.242 1.1514s-.0806.7892-.242 1.1514c-.1613.3621-.3831.681-.6655.9567-.2823.2757-.6158.4933-1.0003.6527Zm-14.5488-1.6257v1.7027H23v-5.6756h2.5411c.3119 0 .597.05.8551.15.2581.1.4786.2392.6615.4175.1828.1784.3254.3892.4275.6325.1022.2432.1533.5054.1533.7864 0 .2865-.0511.55-.1533.7906-.1021.2405-.2447.45-.4275.6284-.1829.1783-.4034.3175-.6615.4175-.2581.1-.5432.15-.8551.15h-1.0084Zm0-1.3783h.9277c.1829 0 .3362-.0609.4598-.1825.1237-.1216.1856-.2635.1856-.4257 0-.1621-.0619-.304-.1856-.4256-.1236-.1216-.2769-.1825-.4598-.1825h-.9277v1.2163Zm5.6066 3.081v-2.1892h2.057v2.1892h1.5328v-5.6756h-1.5328v2.1081h-2.057v-2.1081h-1.5328v5.6756h1.5328Zm7.7039-1.2162c-.2205 0-.4275-.0405-.6211-.1216s-.3604-.1946-.5002-.3405c-.1398-.146-.2501-.3176-.3307-.5149-.0807-.1973-.121-.4122-.121-.6446 0-.2324.0403-.4473.121-.6446.0806-.1973.1909-.3689.3307-.5149.1398-.1459.3066-.2594.5002-.3405s.4006-.1216.6211-.1216c.2205 0 .4262.0405.6172.1216.1909.0811.3576.1946.5001.3405.1425.146.2541.3176.3348.5149.0807.1973.121.4122.121.6446 0 .2324-.0403.4473-.121.6446-.0807.1973-.1923.3689-.3348.5149-.1425.1459-.3092.2594-.5001.3405-.191.0811-.3967.1216-.6172.1216Zm6.7359-3.0811v4.2973h-1.5327v-4.2973h-1.573v-1.3783h4.6788v1.3783h-1.5731ZM49.7823 47c.441 0 .8538-.0797 1.2383-.2392.3845-.1594.718-.377 1.0003-.6527.2824-.2757.5042-.5946.6656-.9567.1613-.3622.242-.746.242-1.1514s-.0807-.7892-.242-1.1514c-.1614-.3621-.3832-.681-.6656-.9567-.2823-.2757-.6158-.4933-1.0003-.6527-.3845-.1595-.7973-.2392-1.2383-.2392-.4463 0-.8604.0797-1.2423.2392-.3818.1594-.7139.377-.9962.6527-.2824.2757-.5042.5946-.6656.9567-.1613.3622-.242.746-.242 1.1514s.0807.7892.242 1.1514c.1614.3621.3832.681.6656.9567.2823.2757.6144.4933.9962.6527.3819.1595.796.2392 1.2423.2392Zm-.6211-1.5c.1936.0811.4006.1216.6211.1216.2205 0 .4262-.0405.6172-.1216.1909-.0811.3576-.1946.5001-.3405.1425-.146.2541-.3176.3348-.5149.0807-.1973.121-.4122.121-.6446 0-.2324-.0403-.4473-.121-.6446-.0807-.1973-.1923-.3689-.3348-.5149-.1425-.1459-.3092-.2594-.5001-.3405-.191-.0811-.3967-.1216-.6172-.1216-.2205 0-.4275.0405-.6211.1216s-.3603.1946-.5002.3405c-.1398.146-.25.3176-.3307.5149-.0807.1973-.121.4122-.121.6446 0 .2324.0403.4473.121.6446.0807.1973.1909.3689.3307.5149.1399.1459.3066.2594.5002.3405Zm6.51 1.5c.355 0 .6723-.05.9519-.15.2797-.1.5163-.2351.7099-.4054.1936-.1703.3415-.3676.4437-.5919.1022-.2243.1533-.4635.1533-.7176 0-.3297-.0646-.6-.1936-.8108-.1291-.2108-.2904-.3811-.484-.5108-.1936-.1297-.4047-.2324-.6333-.3081a191.2938 191.2938 0 0 1-.6333-.2108c-.1936-.0649-.3549-.1338-.484-.2068-.129-.0729-.1936-.1743-.1936-.304 0-.1243.0551-.2365.1654-.3365.1102-.1.2568-.15.4396-.15.1399 0 .2663.023.3792.0689.1129.046.2097.0987.2904.1581.0968.0649.1829.1379.2581.2189l.8874-.9324c-.1291-.1513-.2877-.2865-.4759-.4054-.1614-.1027-.3657-.1959-.6131-.2797-.2474-.0838-.5432-.1257-.8874-.1257-.3227 0-.6158.0486-.8793.1459-.2635.0973-.488.2271-.6736.3892-.1855.1622-.3294.3487-.4316.5595-.1022.2108-.1532.427-.1532.6486 0 .3298.0645.6.1936.8109.129.2108.2904.381.484.5108.1936.1297.4047.2324.6332.3081.2286.0756.4397.1459.6333.2108.1936.0648.3549.1338.484.2067.1291.073.1936.1744.1936.3041 0 .1622-.0645.304-.1936.4257-.1291.1216-.3065.1824-.5324.1824-.1829 0-.3482-.0311-.4961-.0932-.1479-.0622-.2756-.1311-.3832-.2068-.1237-.0919-.2339-.1946-.3308-.3081l-.8873.9324c.1613.1838.3522.346.5727.4865.1883.1243.4222.2365.7019.3365.2796.1.6077.15.9841.15Zm4.6789-3.3243v3.1621h-1.5327v-5.6756h1.331l2.4201 3.1621v-3.1621h1.5327v5.6756h-1.323l-2.4281-3.1621Zm6.0502 3.1621.4034-1.2162h1.8554l.4033 1.2162h1.6537l-2.1377-5.6756h-1.6941l-2.1377 5.6756h1.6537Zm6.4939 0v-1.7027h1.0084c.3119 0 .5969-.05.8551-.15.2581-.1.4786-.2392.6615-.4175.1828-.1784.3253-.3879.4275-.6284.1022-.2406.1533-.5041.1533-.7906 0-.281-.0511-.5432-.1533-.7864-.1022-.2433-.2447-.4541-.4275-.6325-.1829-.1783-.4034-.3175-.6615-.4175-.2582-.1-.5432-.15-.8551-.15h-2.5411v5.6756h1.5327Zm0-3.081h.9277c.1829 0 .3361-.0609.4598-.1825.1237-.1216.1856-.2635.1856-.4257 0-.1621-.0619-.304-.1856-.4256-.1237-.1216-.2769-.1825-.4598-.1825h-.9277v1.2163Zm-5.1628-1.0136-.5244 1.6622h1.0487l-.5243-1.6622Z"/><path fill="url(#b)" d="m12 47 4-6 4 6h-8Z"/></g><defs><linearGradient id="b" x1="16" x2="18.4658" y1="48.5" y2="41.9247" gradientUnits="userSpaceOnUse"><stop stop-color="#FFC593"/><stop offset=".51945" stop-color="#BC7198"/><stop offset="1" stop-color="#5A77FF"/></linearGradient><filter id="a" width="88" height="88" x="0" y="0" color-interpolation-filters="sRGB" filterUnits="userSpaceOnUse"><feFlood flood-opacity="0" result="BackgroundImageFix"/><feBlend in="SourceGraphic" in2="BackgroundImageFix" result="shape"/><feColorMatrix in="SourceAlpha" result="hardAlpha" values="0 0 0 0 0 0 0 0 0 0 0 0 0 0 0 0 0 0 127 0"/><feOffset/><feGaussianBlur stdDeviation="17.5"/><feComposite in2="hardAlpha" k2="-1" k3="1" operator="arithmetic"/><feColorMatrix values="0 0 0 0 0 0 0 0 0 0 0 0 0 0 0 0 0 0 0.0452633 0"/><feBlend in2="shape" result="effect1_innerShadow_0_889"/></filter></defs></svg>