<svg xmlns="http://www.w3.org/2000/svg" width="88" height="88" fill="none"><g filter="url(#a)"><circle cx="44" cy="44" r="44" fill="#19ACDE"/></g><path fill="#fff" fill-rule="evenodd" d="M26.6143 50.7228h-3.5681L25.1517 39h3.568l-.7393 4.1347c.6429-.7604 1.6715-1.4099 3.0216-1.4099 2.0894 0 3.0538 1.5049 2.6359 3.8178l-.9322 5.1802h-3.552l.8518-4.7367c.1608-.8554-.2571-1.3782-1.0286-1.3782-.7875 0-1.3501.5228-1.5108 1.3782v-.0158l-.8518 4.7525Zm-7.3328-5.4239c1.3295.3845 3.1138.9004 3.1138 2.6199 0 1.8852-1.8323 2.9149-4.3074 2.9149-2.6037 0-4.3717-1.299-4.0502-3.2h3.4234c-.0161.5386.3696.7762.9161.7762.3697 0 .675-.1901.675-.4277 0-.3749-.6107-.5418-1.3806-.7523-1.3125-.3588-3.0875-.844-3.0875-2.7012 0-1.6 1.543-2.8515 3.9378-2.8515 2.668 0 4.0984 1.4416 4.0341 3.2h-3.1662c0-.4752-.3054-.7604-.884-.7604-.3536 0-.6429.1426-.6429.4119 0 .36.6291.542 1.4186.7702Zm24.7632.1328c0-2.2812-1.6554-3.7545-4.0663-3.7545-3.2627 0-5.7057 2.2812-5.7057 5.4178 0 2.2812 1.6555 3.7387 4.0663 3.7387 3.2627 0 5.7057-2.2337 5.7057-5.402Zm-4.6127-.7129c-.9805 0-1.4948 1.0931-1.4948 1.9961 0 .7445.4018 1.0772.9483 1.0772.9804 0 1.4947-1.0931 1.4947-1.9961 0-.7445-.4179-1.0772-.9482-1.0772Zm8.8638 2.3446c.225-1.2198.9644-1.5842 2.2502-1.5842h1.0125l.659-3.7544c-1.1733 0-2.3787.7128-3.2627 1.7108l.2893-1.6475H45.676l-1.6072 8.9347h3.5681l.6589-3.6594Zm7.3692 3.6594c-2.1216 0-3.5681-.8872-3.0698-3.6594l.4179-2.3446H51.888l.5304-2.9307h1.125l.3858-2.1544h3.568l-.3857 2.1544h1.4787l-.5304 2.9307h-1.4787l-.4339 2.4079c-.0643.4119.0964.602.5625.602h.8518l-.5464 2.9941H55.665Zm2.5153 0h3.5681L63.8538 39h-3.568l-2.1055 11.7228Zm5.6173-8.9347 2.2501 8.4911L62.9297 55h3.9056L75 41.7881h-3.9377l-2.4109 4.5307-.8839-4.5307h-3.9699Z" clip-rule="evenodd"/><defs><filter id="a" width="88" height="88" x="0" y="0" color-interpolation-filters="sRGB" filterUnits="userSpaceOnUse"><feFlood flood-opacity="0" result="BackgroundImageFix"/><feBlend in="SourceGraphic" in2="BackgroundImageFix" result="shape"/><feColorMatrix in="SourceAlpha" result="hardAlpha" values="0 0 0 0 0 0 0 0 0 0 0 0 0 0 0 0 0 0 127 0"/><feOffset/><feGaussianBlur stdDeviation="17.5"/><feComposite in2="hardAlpha" k2="-1" k3="1" operator="arithmetic"/><feColorMatrix values="0 0 0 0 0 0 0 0 0 0 0 0 0 0 0 0 0 0 0.0452633 0"/><feBlend in2="shape" result="effect1_innerShadow_0_1240"/></filter></defs></svg>